Coordinates
version=1
nRows=34
nColumns=19
inDegrees=yes

Units are S.I. units (second, meters, Newtons, ...)
If the header above contains a line with 'inDegrees', this indicates whether rotational values are in degrees (yes) or radians (no).

endheader
time	pelvis_tilt	pelvis_list	pelvis_rotation	pelvis_tx	pelvis_ty	pelvis_tz	hip_flexion_r	hip_adduction_r	hip_rotation_r	knee_angle_r	knee_angle_r_beta	ankle_angle_r	hip_flexion_l	hip_adduction_l	hip_rotation_l	knee_angle_l	knee_angle_l_beta	ankle_angle_l
     10.97333333	     -1.32450930	     -3.36115961	     -4.72723121	      2.38988935	      1.05609088	      1.02088306	     16.72903216	      8.74230039	      0.51982202	      5.72922971	      0.09999392	      6.39478952	    -15.21760610	     -5.31648036	    -15.03079266	     46.51486503	      0.81183755	     -9.36729837
     10.98000000	     -0.79791923	     -3.94045969	     -4.95450742	      2.38891770	      1.05258416	      1.02177341	     16.75800028	      9.25983045	     -0.70961874	      7.95053338	      0.13876298	      5.94877614	    -14.84638014	     -6.14262971	    -14.65752536	     49.94779866	      0.87175354	     -8.75163289
     10.98666667	      0.19844608	     -4.62494366	     -5.23979912	      2.38783160	      1.04927530	      1.02249293	     16.27309799	      9.81024067	     -1.81581592	     10.33326292	      0.18034946	      5.32865618	    -15.00467938	     -6.95797106	    -14.36047987	     53.26131190	      0.92958526	     -8.18180723
     10.99333333	      0.05392457	     -4.96093441	     -5.44695924	      2.38631160	      1.04424423	      1.02305871	     17.40512570	      9.96284458	     -3.23484217	     13.52060963	      0.23597916	      5.07673058	    -13.59722504	     -7.51489168	    -13.61113673	     56.94932289	      0.99395319	     -7.69778297
     11.00000000	      0.40395680	     -5.36523562	     -5.74340499	      2.38469800	      1.03952577	      1.02339513	     17.92569407	     10.12288572	     -4.32768919	     16.67554432	      0.29104315	      4.86781744	    -12.77476967	     -8.01777177	    -13.03646839	     60.43748916	      1.05483318	     -7.24173475
     11.00666667	      1.21434860	     -5.92503143	     -6.04066548	      2.38306302	      1.03514504	      1.02352453	     17.83522141	     10.38301876	     -5.20403715	     19.71521017	      0.34409533	      4.86511150	    -12.49178896	     -8.63779016	    -12.64352838	     63.77716721	      1.11312156	     -6.82793971
     11.01333333	      0.94177229	     -6.04814543	     -6.33507332	      2.38104319	      1.02940862	      1.02345060	     19.13044688	     10.23135433	     -5.97184079	     23.14321579	      0.40392532	      5.23298040	    -10.75197478	     -8.79675014	    -11.79015945	     67.27120728	      1.17410406	     -6.39329242
     11.02000000	      1.61809164	     -6.54014290	     -6.61998084	      2.37910299	      1.02478523	      1.02321887	     19.11247492	     10.42172346	     -6.43189066	     26.12668048	      0.45599660	      5.88966982	    -10.19716178	     -9.30399135	    -11.33743495	     70.45796447	      1.22972346	     -5.98805070
     11.02666667	      1.29946563	     -6.59668045	     -6.86774875	      2.37687344	      1.01907258	      1.02281280	     20.30586855	     10.22327591	     -6.81738989	     29.32459314	      0.51181070	      6.92138786	     -8.29129033	     -9.38215226	    -10.49535192	     73.74445392	      1.28708353	     -5.52900355
     11.03333333	      1.24716802	     -6.83409282	     -7.17778929	      2.37465986	      1.01384588	      1.02245625	     20.98702883	     10.28902412	     -6.86691656	     32.16817513	      0.56144057	      8.25508775	     -6.73626695	     -9.67622857	     -9.91686403	     76.82666674	      1.34087829	     -5.09374692
     11.04000000	      1.91886690	     -7.35716059	     -7.42079037	      2.37248968	      1.00978175	      1.02205838	     20.60307198	     10.62367527	     -6.79121527	     34.55272376	      0.60305880	      9.84358496	     -6.07011271	    -10.27531472	     -9.56492198	     79.59586870	      1.38920998	     -4.64595302
     11.04666667	      1.12460424	     -7.29931784	     -7.64971793	      2.37002295	      1.00431789	      1.02157342	     21.91961895	     10.50128357	     -6.68634021	     37.07849426	      0.64714181	     11.49128951	     -3.45090553	    -10.27284993	     -8.65147244	     82.49014470	      1.43972463	     -4.15477745
     11.05333333	      0.96873174	     -7.52285386	     -7.82806425	      2.36765688	      1.00006413	      1.02114451	     22.22683134	     10.65688928	     -6.48892848	     39.08462782	      0.68215544	     13.22710467	     -1.62333264	    -10.59799236	     -7.97491131	     85.05856057	      1.48455194	     -3.69392262
     11.06000000	      1.31117233	     -7.88795132	     -7.98587124	      2.36537150	      0.99691413	      1.02076015	     21.72827448	     10.94994646	     -6.18139543	     40.66253807	      0.70969517	     15.00818460	     -0.40163445	    -11.04757762	     -7.43535499	     87.29946856	      1.52366316	     -3.21288623
     11.06666667	      0.56325198	     -7.89448628	     -8.02922059	      2.36297211	      0.99300891	      1.02032455	     22.37983866	     10.94302716	     -6.02911622	     42.12555902	      0.73522970	     16.58309972	      2.29124606	    -11.17635680	     -6.46845470	     89.54195545	      1.56280194	     -2.82905296
     11.07333333	      0.32563319	     -8.01158565	     -8.04784062	      2.36070611	      0.99029339	      1.01994493	     22.22022377	     11.02288576	     -5.79815569	     43.16664206	      0.75340003	     18.08673551	      4.35386676	    -11.38684088	     -5.65447046	     91.41601151	      1.59551039	     -2.44900846
     11.08000000	      0.59756012	     -8.16838368	     -8.11580561	      2.35857687	      0.98884652	      1.01971611	     21.27259840	     11.14467706	     -5.38720520	     43.82385500	      0.76487056	     19.50797792	      5.75911487	    -11.61846132	     -5.08331539	     92.89116537	      1.62125668	     -2.08698816
     11.08666667	     -0.17604034	     -8.08889809	     -7.94285767	      2.35644592	      0.98671289	      1.01924180	     21.41296004	     11.00672330	     -5.37956519	     44.32508729	      0.77361871	     20.57865360	      8.57536415	    -11.56198685	     -3.95525429	     94.33056838	      1.64637900	     -1.79238048
     11.09333333	     -0.34527452	     -8.09118248	     -7.76716289	      2.35454570	      0.98597722	      1.01885550	     20.66203853	     10.92290242	     -5.25042149	     44.42937624	      0.77543890	     21.54028009	     10.59792465	    -11.56216668	     -3.07516887	     95.34085959	      1.66401191	     -1.50785176
     11.10000000	     -0.20842256	     -7.97598927	     -7.82812646	      2.35270806	      0.98625676	      1.01878391	     19.45029588	     10.82355169	     -4.68750078	     44.31442407	      0.77343261	     22.29756414	     12.12411139	    -11.46027248	     -2.63037210	     95.94008612	      1.67447039	     -1.23159326
     11.10666667	     -0.36564549	     -7.80596884	     -7.63223848	      2.35132199	      0.98683273	      1.01853679	     18.37212724	     10.59222915	     -4.46764454	     43.84200217	      0.76518729	     23.07511760	     14.00641551	    -11.28063169	     -1.95649684	     96.28022193	      1.68040688	     -0.90901519
     11.11333333	     -0.96091974	     -7.59875644	     -7.16903011	      2.34989389	      0.98735103	      1.01783105	     17.74067379	     10.22524520	     -4.70595830	     43.23612632	      0.75461276	     23.45340745	     16.49117264	    -10.91058613	     -0.91114425	     96.47638351	      1.68383054	     -0.65441807
     11.12000000	     -1.16352237	     -7.23466352	     -7.12388362	      2.34878764	      0.98899360	      1.01787890	     16.53363693	      9.89307096	     -4.22394814	     42.41320859	      0.74025014	     23.84949792	     18.21418308	    -10.60895237	     -0.68520095	     96.17158964	      1.67851089	     -0.32527504
     11.12666667	     -1.47788677	     -6.83977315	     -7.02705942	      2.34801882	      0.99105161	      1.01786896	     15.32811474	      9.49933793	     -3.88468131	     41.36001538	      0.72186845	     24.07769814	     19.96403949	    -10.25285274	     -0.48299383	     95.56772039	      1.66797138	      0.03774826
     11.13333333	     -1.85144916	     -6.48714114	     -6.58067913	      2.34732046	      0.99344507	      1.01731217	     14.08823598	      9.09452296	     -3.79571516	     40.04748912	      0.69896054	     24.18511036	     21.82520791	     -9.74657737	      0.05991268	     94.77591481	      1.65415177	      0.37972771
     11.14000000	     -2.31354579	     -6.00844188	     -6.42107600	      2.34701618	      0.99625878	      1.01723907	     12.86726188	      8.65073844	     -3.44342766	     38.62961820	      0.67421403	     24.06957992	     23.51872702	     -9.31124007	      0.08600845	     93.60897819	      1.63378488	      0.81841096
     11.14666667	     -2.54859471	     -5.63494943	     -5.97893849	      2.34709975	      0.99972835	      1.01690185	     11.23707989	      8.23834079	     -3.40454846	     36.88093922	      0.64369382	     23.78981231	     24.88932614	     -8.87491388	      0.27578669	     92.17503730	      1.60875789	      1.24512639
     11.15333333	     -3.12812541	     -5.06990148	     -5.86104625	      2.34736609	      1.00311221	      1.01698836	      9.99598574	      7.74830130	     -2.99514548	     35.16986730	      0.61382998	     23.28895127	     26.41876816	     -8.43398313	     -0.00252783	     90.45732592	      1.57877817	      1.75393781
     11.16000000	     -2.77484447	     -4.66030117	     -5.50160105	      2.34819947	      1.00800136	      1.01694455	      7.50520989	      7.30562310	     -2.80494910	     32.99264012	      0.57583020	     22.53112429	     26.74378815	     -8.11627630	     -0.34651318	     88.39357529	      1.54275893	      2.30315662
     11.16666667	     -2.89914364	     -4.12569827	     -5.26793142	      2.34918769	      1.01248713	      1.01709341	      5.58460359	      6.79378822	     -2.57046493	     30.90113509	      0.53932655	     21.51977261	     27.46262711	     -7.75903867	     -0.87318828	     86.12373583	      1.50314275	      2.82747578
     11.17333333	     -3.05916181	     -3.56942614	     -5.02691392	      2.35049431	      1.01709887	      1.01729427	      3.66265852	      6.25872149	     -2.41278753	     28.71569175	      0.50118337	     20.20004698	     28.07833755	     -7.39767919	     -1.49725556	     83.62314574	      1.45949922	      3.32135390
     11.18000000	     -2.96296101	     -2.97540472	     -4.83615105	      2.35201026	      1.02212163	      1.01763189	      1.47158753	      5.65755356	     -2.28767175	     26.50659735	      0.46262740	     18.59524295	     28.23963934	     -7.08228515	     -2.39118097	     80.87108122	      1.41146664	      3.85654273
     11.18666667	     -2.98156325	     -2.36380184	     -4.64107921	      2.35369010	      1.02706518	      1.01800959	     -0.55681281	      5.03752544	     -2.28883433	     24.33474708	      0.42472146	     16.63648552	     28.40929653	     -6.75328142	     -3.36048336	     77.92202537	      1.35999590	      4.37382442
     11.19333333	     -2.97408636	     -1.74123882	     -4.45431882	      2.35550347	      1.03204859	      1.01841625	     -2.56249099	      4.39467857	     -2.40698607	     22.21339262	      0.38769684	     14.40948915	     28.42388410	     -6.42715495	     -4.45648791	     74.77355832	      1.30504479	      4.82467643
